:SAMPLES-PER-SECOND 30
:FULLY-SPECIFIED
:DEGREES
111
root  -1.50889 27.5374 10.9026 -23.1114 -20.573 8.09814
RightUpLeg  -23.5756 -1.24793 -0.349843
RightLeg  98.5635 10.7729 -44.225
RightFoot  -20.458 2.37844 30.8805
RightToes  5.82063e-011 0 -3.6325e-017
Spine  24.7637 -3.16032 0.494772
Spine1  -0.852147 -3.83741 1.0101
HEad  -11.2394 -54.406 3.49824
LeftShoulder1  2.24844 -5.15136 -19.4781
LeftArm  -37.4065 24.3573 -37.7763
LeftForeArm  -23.5655 -36.1018 -9.30929
LeftHand  2.8835 12.4472 44.6006
RightShoulder  1.64519 2.69477 20.2061
RightArm  -41.7379 -36.5546 34.1027
RightForeArm  -42.023 30.7593 8.50222
RightHand  -2.01739 -0.400214 -44.9343
LeftUpLeg  -26.3725 1.06351 -9.45132
LeftLeg  95.8072 2.63204 -20.3843
LeftFoot  -34.4414 0.263145 0.268849
LeftToes  3.99265e-010 -1.33173e-010 6.75004e-011
112
root  -1.33602 27.5281 10.6138 -23.4653 -20.7552 7.88994
RightUpLeg  -23.6932 -1.39796 -0.564238
RightLeg  98.6475 10.4842 -43.1987
RightFoot  -20.9082 2.56597 31.6138
RightToes  5.82063e-011 0 -3.6325e-017
Spine  26.3719 -3.07551 1.70299
Spine1  0.292748 -3.36153 0.164302
HEad  -17.3481 -54.547 8.03755
LeftShoulder1  2.81254 -6.26813 -22.5003
LeftArm  -32.9424 21.6468 -40.5441
LeftForeArm  -30.4149 -27.2569 -7.2134
LeftHand  2.33969 12.3821 36.7886
RightShoulder  1.91927 3.35816 21.7429
RightArm  -36.8841 -32.8206 41.8874
RightForeArm  -48.3511 23.9841 7.0053
RightHand  -1.27903 -2.06516 -42.8607
LeftUpLeg  -26.5206 0.84576 -9.65472
LeftLeg  95.6728 2.41763 -19.3146
LeftFoot  -34.5714 0.354774 0.708978
LeftToes  3.99265e-010 -1.33173e-010 6.75004e-011
113
root  -1.13609 27.5954 10.3574 -23.596 -20.9875 7.84173
RightUpLeg  -23.8758 -1.50576 -1.01299
RightLeg  98.5026 9.97708 -42.1532
RightFoot  -21.4426 2.70386 31.5008
RightToes  5.82063e-011 0 -3.6325e-017
Spine  27.1642 -3.03381 2.9934
Spine1  1.51572 -2.80083 -1.03044
HEad  -21.2965 -54.5364 11.0342
LeftShoulder1  3.18252 -6.75265 -24.8687
LeftArm  -19.8913 16.9653 -43.2253
LeftForeArm  -32.0096 -27.0529 -7.26793
LeftHand  1.18546 10.9214 25.3805
RightShoulder  1.94459 3.39975 21.9374
RightArm  -28.3072 -27.1104 49.2759
RightForeArm  -50.4864 23.3158 6.95185
RightHand  -0.798755 -2.97327 -37.3306
LeftUpLeg  -26.6406 0.72718 -10.0398
LeftLeg  95.107 2.06502 -18.2252
LeftFoot  -34.7891 0.381433 0.824393
LeftToes  3.99265e-010 -1.33173e-010 6.75004e-011
114
root  -0.932132 27.7008 10.1594 -23.4993 -21.0379 7.63092
RightUpLeg  -23.9113 -1.26322 -1.36479
RightLeg  98.379 9.29529 -40.4407
RightFoot  -22.012 2.86062 31.4879
RightToes  5.82063e-011 0 -3.6325e-017
Spine  27.2721 -3.14172 4.54564
Spine1  2.20204 -2.21984 -2.46539
HEad  -21.5739 -55.1459 11.637
LeftShoulder1  3.24869 -6.99025 -24.7922
LeftArm  -6.7719 11.4813 -45.9571
LeftForeArm  -27.3903 -33.5957 -8.85676
LeftHand  0.420282 9.90213 10.8176
RightShoulder  1.82369 3.2085 20.8718
RightArm  -19.6451 -22.3063 53.2715
RightForeArm  -44.9611 28.7192 8.08967
RightHand  -0.640592 -2.96488 -29.9978
LeftUpLeg  -26.7128 0.862459 -10.4111
LeftLeg  94.4002 1.6045 -16.4036
LeftFoot  -35.1052 0.401611 0.898833
LeftToes  3.99265e-010 -1.33173e-010 6.75004e-011
115
root  -0.722629 27.7862 10.0098 -23.5683 -20.647 7.12674
RightUpLeg  -23.6088 -0.990677 -1.6063
RightLeg  98.33 8.71879 -38.7273
RightFoot  -22.2553 2.97149 31.9111
RightToes  5.82063e-011 0 -3.6325e-017
Spine  27.5925 -3.57152 5.89103
Spine1  1.99565 -2.13082 -3.29025
HEad  -19.2532 -55.7627 10.0075
LeftShoulder1  2.98163 -7.05764 -21.8938
LeftArm  -2.21222 7.41724 -48.8345
LeftForeArm  -14.4439 -43.5715 -11.6066
LeftHand  0.136817 3.62977 -6.6857
RightShoulder  1.66878 3.02534 19.1348
RightArm  -16.9831 -20.3573 52.2618
RightForeArm  -29.6347 39.3804 10.8039
RightHand  -0.743166 -1.19713 -21.1329
LeftUpLeg  -26.4544 1.09759 -10.6612
LeftLeg  93.7869 1.22244 -14.5828
LeftFoot  -35.492 0.511828 1.38673
LeftToes  3.99265e-010 -1.33173e-010 6.75004e-011
116
root  -0.524311 27.8609 9.92068 -23.5921 -20.1416 6.98705
RightUpLeg  -23.4345 -0.713717 -2.03826
RightLeg  98.0258 8.34611 -38.3293
RightFoot  -22.5704 3.01292 31.4743
RightToes  5.82063e-011 0 -3.6325e-017
Spine  28.0554 -4.15322 5.89792
Spine1  0.972973 -2.87956 -2.61181
HEad  -16.4809 -54.7534 6.60476
LeftShoulder1  2.50917 -6.59181 -18.2713
LeftArm  -6.0701 6.68484 -50.7915
LeftForeArm  -2.38898 -52.9575 -15.1382
LeftHand  0.745913 -3.61235 -10.3407
RightShoulder  1.45758 2.61841 17.2273
RightArm  -20.1252 -20.982 47.447
RightForeArm  -12.0149 53.209 16.3202
RightHand  -0.911103 2.33397 -13.7787
LeftUpLeg  -26.185 1.45146 -11.0254
LeftLeg  93.0408 0.982523 -14.121
LeftFoot  -36.1079 0.590792 1.6961
LeftToes  3.99265e-010 -1.33173e-010 6.75004e-011
117
root  -0.366334 28.0324 9.9143 -23.0262 -20.3587 7.89275
RightUpLeg  -23.863 0.476247 -2.78359
RightLeg  97.0923 7.75091 -38.9935
RightFoot  -23.7433 3.13441 29.7345
RightToes  5.82063e-011 0 -3.6325e-017
Spine  27.7064 -4.58405 4.678
Spine1  -0.410499 -3.94713 -1.19687
HEad  -14.5708 -51.804 2.55902
LeftShoulder1  2.1586 -5.90549 -16.2292
LeftArm  -13.5804 8.73434 -50.8696
LeftForeArm  -0.322813 -56.3764 -17.1124
LeftHand  -0.399069 -2.96248 5.85309
RightShoulder  1.24249 2.00914 15.8681
RightArm  -25.9379 -23.2625 41.8307
RightForeArm  -1.4346 65.3432 25.9896
RightHand  -1.21249 3.70504 -15.461
LeftUpLeg  -26.4139 2.4982 -11.7378
LeftLeg  91.5949 0.656112 -14.7076
LeftFoot  -36.9401 0.463832 1.05896
LeftToes  3.99265e-010 -1.33173e-010 6.75004e-011
118
root  -0.264298 28.3995 9.94747 -22.1412 -21.5473 9.48203
RightUpLeg  -24.3434 3.01348 -3.56299
RightLeg  95.3669 6.44137 -39.6076
RightFoot  -25.4905 3.39392 28.2104
RightToes  5.82063e-011 0 -3.6325e-017
Spine  26.3221 -4.99038 3.51024
Spine1  -1.13233 -4.77714 -0.547052
HEad  -14.1037 -48.1788 -0.199213
LeftShoulder1  2.22003 -6.12941 -16.3115
LeftArm  -20.6199 10.8255 -49.5806
LeftForeArm  -6.28452 -51.3577 -14.6978
LeftHand  -0.228243 4.15889 35.9229
RightShoulder  1.18908 1.75103 15.9578
RightArm  -31.7213 -26.0224 37.9548
RightForeArm  0.472067 69.7647 33.4858
RightHand  -2.41364 4.25816 -28.1791
LeftUpLeg  -26.7306 4.49169 -12.5677
LeftLeg  89.1642 0.0288637 -15.1504
LeftFoot  -37.547 0.253606 0.109447
LeftToes  3.99265e-010 -1.33173e-010 6.75004e-011
119
root  -0.199707 28.9537 9.89788 -21.6858 -23.0325 10.8494
RightUpLeg  -24.2006 5.85193 -4.04865
RightLeg  93.0319 4.54946 -40.2015
RightFoot  -26.2158 3.46967 27.4632
RightToes  5.82063e-011 0 -3.6325e-017
Spine  25.033 -5.65363 2.39275
Spine1  -0.487974 -5.76237 -0.192815
HEad  -15.4933 -44.5903 -0.597407
LeftShoulder1  2.6622 -7.38274 -17.8387
LeftArm  -24.2255 11.1943 -48.4842
LeftForeArm  -15.8333 -41.8012 -10.9388
LeftHand  3.45753 12.1214 55.4198
RightShoulder  1.32501 2.02418 17.4116
RightArm  -35.7575 -26.836 36.8972
RightForeArm  -10.6368 65.1968 27.3798
RightHand  -3.66585 4.1952 -43.1854
LeftUpLeg  -26.4245 6.67929 -13.0813
LeftLeg  86.0518 -0.82392 -15.339
LeftFoot  -37.2205 0.173687 -0.223604
LeftToes  3.99265e-010 -1.33173e-010 6.75004e-011
120
root  -0.108125 29.6465 9.67175 -21.6444 -24.4592 11.8214
RightUpLeg  -23.9948 7.94895 -4.36285
RightLeg  90.4791 2.42572 -40.9536
RightFoot  -25.0748 2.99653 25.8645
RightToes  5.82063e-011 0 -3.6325e-017
Spine  24.9529 -6.48967 0.00992706
Spine1  0.817131 -7.50678 1.65143
HEad  -18.271 -40.3496 0.349911
LeftShoulder1  3.12335 -8.36366 -19.8756
LeftArm  -20.6592 9.97545 -49.2364
LeftForeArm  -22.5591 -34.5685 -8.87179
LeftHand  4.19946 14.3929 49.823
RightShoulder  1.50427 2.3949 19.0868
RightArm  -36.1349 -24.0356 38.0638
RightForeArm  -25.4521 55.4114 18.3117
RightHand  -3.03135 1.36783 -49.1254
LeftUpLeg  -25.7783 8.30104 -13.2993
LeftLeg  82.4945 -1.79983 -15.3114
LeftFoot  -35.5475 0.0886089 -0.597918
LeftToes  3.99265e-010 -1.33173e-010 6.75004e-011
121
root  0.0791811 30.5017 9.31239 -21.3881 -26.6535 12.8618
RightUpLeg  -24.631 9.79964 -4.95104
RightLeg  87.6061 -0.0626685 -40.5062
RightFoot  -23.1978 2.27724 23.1765
RightToes  5.82063e-011 0 -3.6325e-017
Spine  25.717 -7.19552 -3.15492
Spine1  1.69693 -9.52415 4.46059
HEad  -20.7652 -35.1463 1.00812
LeftShoulder1  3.29997 -8.3451 -21.5097
LeftArm  -9.41214 7.1776 -52.26
LeftForeArm  -21.2513 -34.0623 -8.69533
LeftHand  1.54327 10.8499 30.7693
RightShoulder  1.61456 2.60136 20.1024
RightArm  -31.4102 -19.9356 40.1205
RightForeArm  -34.3197 48.7087 14.7169
RightHand  -1.14051 -2.55484 -43.2583
LeftUpLeg  -25.5402 9.69448 -13.5585
LeftLeg  78.0675 -2.7944 -14.056
LeftFoot  -32.7884 -0.133332 -1.75536
LeftToes  3.99265e-010 -1.33173e-010 6.75004e-011
122
root  0.371959 31.5618 8.93247 -20.5932 -30.5364 13.9592
RightUpLeg  -25.8935 12.1937 -5.71524
RightLeg  83.5979 -3.21689 -38.1914
RightFoot  -21.8151 1.80243 21.1067
RightToes  5.82063e-011 0 -3.6325e-017
Spine  26.1716 -7.7433 -4.82688
Spine1  2.19373 -10.7248 5.74119
HEad  -21.8303 -29.8004 1.14837
LeftShoulder1  3.17811 -7.88961 -21.5453
LeftArm  2.03068 2.52054 -56.3779
LeftForeArm  -13.0742 -40.4684 -10.3452
LeftHand  0.0247266 5.88966 16.0742
RightShoulder  1.66306 2.73337 20.3345
RightArm  -24.6672 -18.2891 42.3355
RightForeArm  -33.0374 50.1551 15.5566
RightHand  -0.184456 -4.6492 -31.5287
LeftUpLeg  -25.7995 11.2926 -13.7289
LeftLeg  72.428 -3.48722 -11.2862
LeftFoot  -29.4684 -0.26949 -2.77405
LeftToes  3.99265e-010 -1.33173e-010 6.75004e-011
123
root  0.748336 32.799 8.55114 -19.3092 -35.9361 14.6135
RightUpLeg  -27.0766 14.417 -6.19042
RightLeg  77.8964 -6.92502 -34.9284
RightFoot  -20.4899 1.36016 18.5717
RightToes  5.82063e-011 0 -3.6325e-017
Spine  26.4032 -8.0898 -4.64289
Spine1  2.57343 -10.9338 5.41088
HEad  -21.8852 -24.6915 1.02632
LeftShoulder1  2.81268 -7.50977 -19.0205
LeftArm  7.44229 -3.22938 -60.2072
LeftForeArm  0.752868 -50.8433 -13.8299
LeftHand  -0.126901 3.94179 9.10818
RightShoulder  1.65186 2.82907 19.7077
RightArm  -21.9798 -19.3436 43.6531
RightForeArm  -22.1922 57.6712 19.9883
RightHand  -0.225542 -4.20638 -22.5395
LeftUpLeg  -26.371 12.1625 -13.4671
LeftLeg  66.0391 -3.37386 -7.53844
LeftFoot  -25.4283 -0.301593 -3.67788
LeftToes  3.99265e-010 -1.33173e-010 6.75004e-011
124
root  1.23352 34.1806 8.10072 -17.5772 -42.2322 14.6273
RightUpLeg  -28.0836 14.9984 -6.24024
RightLeg  70.2763 -10.0309 -29.287
RightFoot  -18.098 0.669451 13.1011
RightToes  5.82063e-011 0 -3.6325e-017
Spine  27.709 -7.73873 -4.42215
Spine1  2.04749 -10.6 6.31652
HEad  -21.9665 -19.443 -0.040677
LeftShoulder1  2.26305 -6.96835 -14.736
LeftArm  5.93192 -7.73407 -61.841
LeftForeArm  20.9198 -62.5214 -20.3032
LeftHand  -0.242925 2.73156 10.0741
RightShoulder  1.56303 2.82036 18.2224
RightArm  -24.5986 -20.5805 42.13
RightForeArm  -9.18696 65.8303 27.7347
RightHand  -0.427746 -2.81185 -19.0301
LeftUpLeg  -27.3816 10.7871 -12.6844
LeftLeg  59.4451 -0.986474 -1.31532
LeftFoot  -19.3072 -0.316913 -6.59559
LeftToes  3.99265e-010 -1.33173e-010 6.75004e-011
125
root  1.84284 35.6566 7.61738 -15.5356 -49.634 14.1939
RightUpLeg  -29.0947 13.5815 -5.8448
RightLeg  60.4825 -9.63261 -18.4469
RightFoot  -13.9015 0.0807846 8.29576
RightToes  5.82063e-011 0 -3.6325e-017
Spine  30.4209 -6.253 -4.58508
Spine1  0.0682272 -9.42262 9.18102
HEad  -22.5885 -14.2277 -2.38688
LeftShoulder1  1.72278 -5.974 -10.966
LeftArm  -1.14075 -8.36041 -58.7491
LeftForeArm  41.9539 -72.9002 -34.1574
LeftHand  -0.195132 4.23224 19.7483
RightShoulder  1.42908 2.70915 16.3552
RightArm  -29.8692 -21.036 36.7114
RightForeArm  -1.75263 70.6716 36.1916
RightHand  -0.868771 -0.570362 -20.5699
LeftUpLeg  -28.8177 7.02128 -11.068
LeftLeg  53.5605 5.80883 8.80318
LeftFoot  -10.2329 0.156461 -10.5701
LeftToes  3.99265e-010 -1.33173e-010 6.75004e-011
